<svg width="27" height="27" viewBox="0 0 27 27" fill="none" xmlns="http://www.w3.org/2000/svg">
    <rect width="27" height="27" rx="4" transform="matrix(-1 0 0 1 27 0)" fill="white"/>
    <rect x="-0.2" y="0.2" width="26.6" height="26.6" rx="3.8" transform="matrix(-1 0 0 1 26.6 0)" stroke="#1D242E" stroke-opacity="0.3" stroke-width="0.4"/>
    <path d="M14.7906 16.774L12.013 13.9964L14.7906 11.2188C15.0698 10.9396 15.0698 10.4886 14.7906 10.2094C14.5114 9.9302 14.0604 9.9302 13.7812 10.2094L10.4953 13.4953C10.2161 13.7745 10.2161 14.2255 10.4953 14.5047L13.7812 17.7906C14.0604 18.0698 14.5114 18.0698 14.7906 17.7906C15.0626 17.5114 15.0698 17.0532 14.7906 16.774Z" fill="#1D242E" fill-opacity="0.3"/>
    </svg>
    